<?xml version="1.0" encoding="UTF-8" standalone="no"?>
<!-- Created with Inkscape (http://www.inkscape.org/) -->

<svg
   xmlns:dc="http://purl.org/dc/elements/1.1/"
   xmlns:cc="http://creativecommons.org/ns#"
   xmlns:rdf="http://www.w3.org/1999/02/22-rdf-syntax-ns#"
   xmlns:svg="http://www.w3.org/2000/svg"
   xmlns="http://www.w3.org/2000/svg"
   xmlns:sodipodi="http://sodipodi.sourceforge.net/DTD/sodipodi-0.dtd"
   xmlns:inkscape="http://www.inkscape.org/namespaces/inkscape"
   width="1920"
   height="1080"
   id="svg10453"
   version="1.1"
   inkscape:version="0.48.4 r9939"
   sodipodi:docname="New document 8">
  <defs
     id="defs10455" />
  <sodipodi:namedview
     id="base"
     pagecolor="#ffffff"
     bordercolor="#666666"
     borderopacity="1.0"
     inkscape:pageopacity="0.0"
     inkscape:pageshadow="2"
     inkscape:zoom="1"
     inkscape:cx="904.71429"
     inkscape:cy="498.14288"
     inkscape:document-units="px"
     inkscape:current-layer="layer1"
     showgrid="false"
     borderlayer="true"
     inkscape:showpageshadow="false"
     fit-margin-top="0"
     fit-margin-left="0"
     fit-margin-right="0"
     fit-margin-bottom="0"
     inkscape:window-width="2560"
     inkscape:window-height="1374"
     inkscape:window-x="0"
     inkscape:window-y="27"
     inkscape:window-maximized="1" />
  <metadata
     id="metadata10458">
    <rdf:RDF>
      <cc:Work
         rdf:about="">
        <dc:format>image/svg+xml</dc:format>
        <dc:type
           rdf:resource="http://purl.org/dc/dcmitype/StillImage" />
        <dc:title></dc:title>
      </cc:Work>
    </rdf:RDF>
  </metadata>
  <g
     inkscape:label="Layer 1"
     inkscape:groupmode="layer"
     id="layer1"
     transform="translate(945.71429,-629.50507)">
    <rect
       style="color:#000000;fill:#d3d7cf;fill-opacity:1;fill-rule:nonzero;stroke:none;stroke-width:2;marker:none;visibility:visible;display:inline;overflow:visible;enable-background:new"
       id="rect10461"
       width="1920"
       height="1080"
       x="-945.71429"
       y="629.50507"
       rx="12.774108"
       ry="6.7175145" />
    <path
       inkscape:connector-curvature="0"
       style="fill:#888a85;fill-opacity:1;fill-rule:evenodd;stroke:none;stroke-width:0.99999934;marker:none;visibility:visible;display:inline;overflow:visible;enable-background:new"
       d="m 97.5997,1099.3109 c -0.94276,-0.1452 -2.03769,1.0059 -2.8921,3.5595 -1.39568,4.172 -9.71677,28.5846 -49.83231,38.2641 3.67414,4.4092 6.00658,9.8388 6.00658,16.0176 0,14.0602 -11.47262,25.5835 -25.583574,25.5835 -11.380784,0 -20.935,-7.5204 -24.24878,-17.7972 -2.517886,8.5998 -10.355159,14.9052 -19.799461,14.9052 -5.666292,0 -10.711601,-2.3209 -14.460275,-6.0066 -0.07402,-0.072 -0.149502,-0.1488 -0.22211,-0.2221 -1.065416,-2.3312 -2.347324,-4.6784 -4.004389,-6.8964 -9.172639,-12.2786 -23.89575,-17.1914 -32.924948,-10.9009 -9.02919,6.2906 -8.949819,21.3138 0.22211,33.5924 6.578584,8.806 16.098914,13.7745 24.248779,13.5704 26.337109,21.4344 81.266308,41.9383 116.127168,16.9074 6.54446,3.5418 13.52153,7.0609 20.02192,8.8986 l 1.33483,-2.6696 c -0.84288,1.8891 -1.32353,3.8726 -0.88986,5.3393 l 2.00216,-0.8899 0.88986,1.1123 15.57265,5.5616 c -0.5888,5.3428 2.19212,11.4587 8.89859,14.0154 12.15276,4.633 23.58138,10.4559 23.58138,10.4559 -5.79698,-19.606 -7.98699,-35.2001 -23.13641,-33.8149 -2.77687,0.2542 -4.87432,1.2907 -6.45154,2.8921 l -13.12544,-8.2316 c 0.021,-0.3737 -0.1104,-0.7332 -0.22213,-1.1123 -0.53535,-1.81 -2.4102,-2.7579 -4.22685,-2.2246 -0.73466,0.2156 -1.35213,0.5459 -1.77972,1.1123 -4.11528,-2.7823 -9.06541,-5.3078 -14.01538,-7.5639 17.37652,-18.472 27.23899,-52.4532 20.91181,-109.6756 -0.30255,-2.3601 -1.05948,-3.637 -2.00225,-3.782 z m -131.032389,18.0198 -0.667039,28.0307 c 3.799926,-4.1987 9.229094,-6.8964 15.350142,-6.8964 8.755049,0 16.079692,5.4863 19.132062,13.1254 0.651379,-2.6505 1.743418,-5.0497 3.114523,-7.3413 -25.768093,-4.107 -36.929329,-26.9184 -36.929329,-26.9184 z m 64.956949,35.1496 c -6.133862,0 -11.12329,4.7894 -11.12329,10.9008 0,6.1114 4.989428,11.1233 11.12329,11.1233 6.1338,0 11.12329,-5.0119 11.12329,-11.1233 0,-6.1114 -4.98949,-10.9008 -11.12329,-10.9008 z m -44.49009,0.4449 c -5.225064,0 -9.566035,4.1375 -9.566035,9.3436 0,5.2061 4.340971,9.3435 9.566035,9.3435 5.225135,0 9.566028,-4.1374 9.566028,-9.3435 0,-5.2061 -4.340893,-9.3436 -9.566028,-9.3436 z m 55.17153,35.1497 c 0,0 11.3454,3.0807 15.35014,8.2311 3.99335,5.1358 3.20551,5.0275 4.00439,8.0088 -3.5302,-1.9373 -9.95907,-4.5558 -12.01316,-4.8942 -2.00262,-0.709 -3.74625,0.5061 -2.89205,2.4471 0.31537,0.716 0.66704,2.6696 0.66704,2.6696 -10.27031,8.2653 -30.484445,6.9422 -57.173726,-2.4471 32.567789,6.4901 49.246816,0.3481 58.953456,-7.1189 -2.56296,-3.2984 -6.89645,-6.8964 -6.89645,-6.8964 z"
       id="path9501"
       sodipodi:nodetypes="cccsscsccsscccccccccscccccccccccccsccccsssssssssscscccccccc" />
    <text
       xml:space="preserve"
       style="font-size:36px;font-style:normal;font-variant:normal;font-weight:bold;font-stretch:normal;text-indent:0;text-align:center;text-decoration:none;line-height:125%;letter-spacing:0px;word-spacing:0px;text-transform:none;direction:ltr;block-progression:tb;writing-mode:lr-tb;text-anchor:middle;baseline-shift:baseline;color:#000000;fill:#000000;fill-opacity:1;fill-rule:nonzero;stroke:none;stroke-width:1;marker:none;visibility:visible;display:inline;overflow:visible;enable-background:accumulate;font-family:Cantarell;-inkscape-font-specification:Cantarell Bold"
       x="46.10318"
       y="1330.2216"
       id="text10488"
       sodipodi:linespacing="125%"><tspan
         sodipodi:role="line"
         id="tspan10490"
         x="57.49736"
         y="1330.2216"
         style="font-size:36px;font-style:normal;font-variant:normal;font-weight:bold;font-stretch:normal;text-align:center;line-height:125%;letter-spacing:22.78839874;writing-mode:lr-tb;text-anchor:middle;font-family:Cantarell;-inkscape-font-specification:Cantarell Bold">GIMP <tspan
   style="font-weight:normal"
   id="tspan10498">TUTORIAL</tspan></tspan></text>
  </g>
</svg>
